# xmcd
#
# Track frame offsets:
# 150
# 7928
# 13192
# 19264
# 29479
# 32803
# 39668
# 44453
# 47566
# 55944
# 76142
#
# Disc length: 1116 seconds
#
# Revision: 0
# Processed by: cddbd v1.5.1PL0 Copyright (c) Steve Scherf et al.
# Submitted via: Audion 3.0.2 (http://www.panic.com/audion/)
#
DISCID=82045a0b
DTITLE=-- - Pancho Villa
DYEAR=1900
DGENRE=
TTITLE0=track1
TTITLE1=track2
TTITLE2=track3
TTITLE3=track4
TTITLE4=track5
TTITLE5=track6
TTITLE6=track7
TTITLE7=track8
TTITLE8=track9
TTITLE9=track10
TTITLE10=track11
EXTD=
EXTT0=
EXTT1=
EXTT2=
EXTT3=
EXTT4=
EXTT5=
EXTT6=
EXTT7=
EXTT8=
EXTT9=
EXTT10=
PLAYORDER=
